<svg width="24" height="24" viewBox="0 0 24 24" fill="none" xmlns="http://www.w3.org/2000/svg">
  <path fill-rule="evenodd" clip-rule="evenodd" d="M20.6066 9.69062C18.3809 6.70192 14.8597 4.95859 11.1338 5.00046C7.41591 5.00284 4.40273 8.01749 4.40273 11.7359C4.40273 12.5186 4.53624 13.2701 4.78172 13.9689C4.15879 14.6039 3.59945 15.3079 3.11611 16.0726C2.89481 16.4227 2.99925 16.886 3.34939 17.1073C3.69953 17.3286 4.16278 17.2241 4.38408 16.874C4.71422 16.3517 5.08458 15.8615 5.49007 15.4068C6.69155 17.2516 8.77242 18.4713 11.1382 18.4713C13.9498 18.4713 15.6631 16.7167 16.9548 14.9751C17.2794 14.5373 17.5857 14.0888 17.877 13.6615L17.8965 13.633C18.1836 13.2117 18.4553 12.8132 18.7295 12.4426C19.2983 11.6738 19.8205 11.1076 20.377 10.7898C20.5634 10.6834 20.6953 10.5021 20.7392 10.2919C20.7831 10.0817 20.7348 9.86282 20.6066 9.69062ZM6.59068 14.3319C7.49278 15.9088 9.19139 16.9713 11.1382 16.9713C13.2026 16.9713 14.5256 15.7324 15.7499 14.0816C16.0542 13.6713 16.3444 13.2467 16.6376 12.8166L16.6642 12.7775C16.9458 12.3644 17.2319 11.9448 17.5236 11.5505C17.9403 10.9873 18.3971 10.4349 18.923 9.98959C16.9775 7.75137 14.1378 6.4657 11.1469 6.50041L11.1382 5.75048V6.50046C8.24672 6.50046 5.90273 8.84444 5.90273 11.7359C5.90273 12.1215 5.94443 12.4974 6.02356 12.8593C7.67101 11.5716 9.62976 10.6973 11.7366 10.3449C12.1451 10.2765 12.5317 10.5523 12.6001 10.9608C12.6684 11.3694 12.3926 11.756 11.9841 11.8243C9.97215 12.1609 8.11339 13.0373 6.59068 14.3319Z" fill="white"/>
</svg>
