<svg width="52" height="52" viewBox="0 0 52 52" fill="none">
  <path d="M51.7786 26.5151C51.8483 26.4486 51.9038 26.3687 51.9417 26.2802C51.9796 26.1916 51.9991 26.0963 51.9991 26C51.9991 25.9037 51.9796 25.8084 51.9417 25.7198C51.9038 25.6313 51.8483 25.5514 51.7786 25.4849L48.6846 21.8758C48.4636 21.6548 48.4636 21.3591 48.5384 21.065L50.0106 16.5719C50.1568 16.2047 49.9375 15.7627 49.6433 15.6148L45.4444 13.4796C45.2234 13.3317 45.0024 13.1107 45.0024 12.8166L44.6336 8.10256C44.6206 7.91159 44.5389 7.73177 44.4036 7.59642C44.2682 7.46108 44.0884 7.37937 43.8974 7.36645L39.1103 6.99758C38.8162 6.99758 38.5952 6.77658 38.4473 6.55558L36.3121 2.35666C36.1642 1.98941 35.7222 1.84154 35.3533 1.98941L30.8619 3.46164C30.7238 3.495 30.5802 3.49922 30.4403 3.47404C30.3004 3.44886 30.1673 3.39483 30.0494 3.31539L26.442 0.221444C26.3755 0.151479 26.2955 0.0957683 26.2068 0.0576998C26.1181 0.0196312 26.0226 0 25.9261 0C25.8295 0 25.734 0.0196312 25.6453 0.0576998C25.5566 0.0957683 25.4766 0.151479 25.4101 0.221444L21.8758 3.31539C21.6548 3.53639 21.3591 3.53639 21.065 3.46164L16.5719 1.98941C16.2047 1.84317 15.7627 2.06254 15.6148 2.35666L13.4796 6.55558C13.3317 6.77658 13.1107 6.99758 12.8166 6.99758L8.10256 7.36645C7.91159 7.37937 7.73177 7.46108 7.59642 7.59642C7.46108 7.73177 7.37937 7.91159 7.36645 8.10256L6.99758 12.815C6.99758 13.1107 6.77658 13.3317 6.55558 13.4796L2.35666 15.6148C1.98941 15.7611 1.84154 16.2047 1.98941 16.5735L3.46164 21.065C3.49476 21.2029 3.49887 21.3462 3.47369 21.4858C3.44852 21.6253 3.39461 21.7582 3.31539 21.8758L0.221444 25.4833C0.151479 25.5497 0.0957683 25.6298 0.0576998 25.7185C0.0196312 25.8072 0 25.9027 0 25.9992C0 26.0957 0.0196312 26.1912 0.0576998 26.2799C0.0957683 26.3686 0.151479 26.4486 0.221444 26.5151L3.31539 30.1242C3.53639 30.3452 3.53639 30.6409 3.46164 30.935L1.98941 35.4281C1.84317 35.7953 2.06254 36.2373 2.35666 36.3852L6.55558 38.5204C6.77658 38.6683 6.99758 38.8893 6.99758 39.1834L7.36645 43.8974C7.36645 44.2663 7.73369 44.6336 8.10256 44.6336L12.815 45.0024C13.1107 45.0024 13.3317 45.2234 13.4796 45.4444L15.6148 49.6433C15.7611 50.0106 16.2047 50.1585 16.5735 50.0106L21.065 48.5384C21.2029 48.5052 21.3462 48.5011 21.4858 48.5263C21.6253 48.5515 21.7582 48.6054 21.8758 48.6846L25.4833 51.7786C25.5497 51.8485 25.6298 51.9042 25.7185 51.9423C25.8072 51.9804 25.9027 52 25.9992 52C26.0957 52 26.1912 51.9804 26.2799 51.9423C26.3686 51.9042 26.4486 51.8485 26.5151 51.7786L30.1242 48.6846C30.3452 48.4636 30.6409 48.4636 30.935 48.5384L35.4281 50.0106C35.7953 50.1568 36.2373 49.9375 36.3852 49.6433L38.5204 45.4444C38.6683 45.2234 38.8893 45.0024 39.1834 45.0024L43.8974 44.6336C44.0884 44.6206 44.2682 44.5389 44.4036 44.4036C44.5389 44.2682 44.6206 44.0884 44.6336 43.8974L45.0024 39.185C45.0024 38.8893 45.2234 38.6683 45.4444 38.5204L49.6433 36.3852C50.0106 36.2389 50.1585 35.7953 50.0106 35.4265L48.5384 30.935C48.5052 30.7971 48.5011 30.6538 48.5263 30.5142C48.5515 30.3747 48.6054 30.2418 48.6846 30.1242L51.7786 26.5167V26.5151Z" fill="#74CC74"/>
  <path fill-rule="evenodd" clip-rule="evenodd" d="M26.9993 28.9997H19.063C16.8351 28.9997 15.0217 30.7953 15.0217 33.0004C15.0217 35.2055 16.8351 36.9994 19.063 36.9994C21.2924 36.9994 23.0003 35.2055 23.0003 33.0004V32.1164C23.0003 31.4989 23.4488 31 23.9996 31C24.5521 31 25.0006 31.5005 25.0006 32.1164V33.0004C25.0006 36.3088 22.4072 38.9998 19.063 38.9998C15.7204 38.9998 13.0002 36.3088 13.0002 33.0004C13.0002 29.6919 15.7204 26.9993 19.063 26.9993H33.0004C34.5911 27.0015 36.1161 27.6345 37.2408 28.7595C38.3655 29.8845 38.998 31.4096 38.9998 33.0004C38.9976 34.5909 38.3648 36.1156 37.2402 37.2402C36.1156 38.3649 34.5908 38.9976 33.0004 38.9998C31.4095 38.9985 29.8841 38.366 28.759 37.2413C27.6339 36.1165 27.0011 34.5913 26.9993 33.0004V28.9997ZM28.9997 28.9997V33.0004C29.001 34.0609 29.4229 35.0775 30.173 35.8273C30.923 36.577 31.9399 36.9986 33.0004 36.9994C34.0606 36.9981 35.077 36.5764 35.8267 35.8267C36.5764 35.077 36.9981 34.0606 36.9994 33.0004C36.9986 31.9399 36.577 30.923 35.8273 30.173C35.0775 29.4229 34.0609 29.001 33.0004 28.9997H28.9997ZM27.001 23.0003H33.0004C34.0609 22.999 35.0775 22.577 35.8273 21.827C36.577 21.077 36.9986 20.0601 36.9994 18.9996C36.9981 17.9394 36.5764 16.923 35.8267 16.1733C35.077 15.4236 34.0606 15.0018 33.0004 15.0006C31.9399 15.0014 30.923 15.423 30.173 16.1727C29.4229 16.9224 29.001 17.9391 28.9997 18.9996L29.0208 19.986C29.0208 20.5385 28.5691 20.987 28.0101 20.987C27.878 20.9876 27.7471 20.9622 27.6248 20.9123C27.5025 20.8623 27.3913 20.7887 27.2974 20.6958C27.2035 20.6028 27.1289 20.4923 27.0778 20.3705C27.0266 20.2487 27 20.1181 26.9993 19.986V18.9996C27.0011 17.4087 27.6339 15.8835 28.759 14.7587C29.8841 13.6339 31.4095 13.0015 33.0004 13.0002C34.591 13.0019 36.116 13.6346 37.2407 14.7593C38.3654 15.884 38.998 17.409 38.9998 18.9996C38.998 20.5904 38.3655 22.1155 37.2408 23.2405C36.1161 24.3655 34.5911 24.9985 33.0004 25.0006H19.0614C15.7188 25.0006 12.9986 22.3081 12.9986 18.9996C12.9986 15.6912 15.7204 13.0002 19.063 13.0002C22.4072 13.0002 25.0006 15.6912 25.0006 18.9996V23.0003H26.9993H27.001ZM23.0003 23.0003V18.9996C22.999 17.9391 22.577 16.9224 21.827 16.1727C21.077 15.423 20.0601 15.0014 18.9996 15.0006C17.9394 15.0018 16.923 15.4236 16.1733 16.1733C15.4236 16.923 15.0018 17.9394 15.0006 18.9996C15.0014 20.0601 15.423 21.077 16.1727 21.827C16.9224 22.577 17.9391 22.999 18.9996 23.0003H23.0003Z" fill="white"/>
</svg>
