<svg data-name="Ebene 1" xmlns="http://www.w3.org/2000/svg" viewBox="0 0 44.06 44.06"><path fill="#F73B47" d="M33.7 23.32H10.15a10.37 10.37 0 1 0 10.59 10.36v-2a1.73 1.73 0 1 0-3.46 0v2a6.91 6.91 0 1 1-6.92-6.91h13v6.91a10.37 10.37 0 1 0 10.37-10.37zm0 17.28a6.93 6.93 0 0 1-6.92-6.91v-6.91h6.92a6.91 6.91 0 1 1 0 13.82zM10.37 20.73H33.7a10.37 10.37 0 1 0-10.37-10.37v2a1.73 1.73 0 0 0 3.45 0v-2a6.92 6.92 0 1 1 6.92 6.91h-13v-6.91a10.37 10.37 0 1 0-10.37 10.37zm0-17.28a6.92 6.92 0 0 1 6.91 6.91v6.91h-6.91a6.91 6.91 0 1 1 0-13.82z"/></svg>