<svg width="24" height="25" viewBox="0 0 24 25" fill="none" xmlns="http://www.w3.org/2000/svg">
<path d="M6.126 14.0692L3 17.2692L5.5 18.7692L7 21.2692L10.899 17.1742" stroke="#FCB001" stroke-width="1.5" stroke-linecap="round" stroke-linejoin="round"/>
<path d="M13.101 17.1742L17 21.2692L18.5 18.7692L21 17.2692L17.874 14.0692" stroke="#FCB001" stroke-width="1.5" stroke-linecap="round" stroke-linejoin="round"/>
<path d="M16.9497 5.31954C19.6833 8.05321 19.6833 12.4854 16.9497 15.219C14.216 17.9527 9.78386 17.9527 7.05019 15.219C4.31652 12.4854 4.31652 8.05321 7.05019 5.31954C9.78386 2.58587 14.216 2.58587 16.9497 5.31954" stroke="#FCB001" stroke-width="1.5" stroke-linecap="round" stroke-linejoin="round"/>
<path fill-rule="evenodd" clip-rule="evenodd" d="M11.999 12.8533L13.796 13.7973C14.146 13.9813 14.555 13.6843 14.488 13.2943L14.145 11.2933L15.599 9.87733C15.882 9.60133 15.726 9.12033 15.335 9.06333L13.326 8.77133L12.428 6.95033C12.253 6.59533 11.748 6.59533 11.573 6.95033L10.675 8.77133L8.665 9.06433C8.274 9.12133 8.118 9.60233 8.401 9.87833L9.855 11.2943L9.512 13.2953C9.445 13.6853 9.854 13.9823 10.204 13.7983L12.001 12.8543H11.999V12.8533Z" stroke="#FCB001" stroke-width="1.5" stroke-linecap="round" stroke-linejoin="round"/>
</svg>
